<svg xmlns="http://www.w3.org/2000/svg" xmlns:xlink="http://www.w3.org/1999/xlink" width="1040" height="494.2"><rect width="1040" height="494.2" rx="5" ry="5" class="a"/><svg y="0%" x="0%"><circle cx="20" cy="20" r="6" fill="#ff5f58"/><circle cx="40" cy="20" r="6" fill="#ffbd2e"/><circle cx="60" cy="20" r="6" fill="#18c132"/></svg><svg height="434.2" viewBox="0 0 100 43.42" width="1000" x="15" xmlns="http://www.w3.org/2000/svg" xmlns:xlink="http://www.w3.org/1999/xlink" y="50"><style>@keyframes i{0%{transform:translateX(0)}.16%{transform:translateX(-100px)}5.02%{transform:translateX(-200px)}10.63%{transform:translateX(-300px)}10.81%{transform:translateX(-500px)}28.93%{transform:translateX(-700px)}28.98%{transform:translateX(-900px)}49.44%{transform:translateX(-1000px)}49.45%{transform:translateX(-1100px)}49.46%{transform:translateX(-1300px)}69.56%{transform:translateX(-1500px)}70%{transform:translateX(-1600px)}to{transform:translateX(-1700px)}}.a{fill:#282d35}.f{fill:#b9c0cb;white-space:pre}</style><g font-family="Monaco,Consolas,Menlo,'Bitstream Vera Sans Mono','Powerline Symbols',monospace" font-size="1.67"><defs><symbol id="1"><text y="1.67" class="f">$</text></symbol><symbol id="2"><text y="1.67" class="f">$./haproxy-reload-wrapper</text><text x="26.052" y="1.67" class="f">-f</text><text x="29.058" y="1.67" class="f">/usr/local/etc/haproxy/haproxy.cfg</text></symbol><symbol id="3"><text y="1.67" class="f">[NOTICE]</text><text x="11.022" y="1.67" class="f">(12981)</text><text x="19.038" y="1.67" class="f">:</text><text x="21.042" y="1.67" class="f">haproxy-reload-wrapper</text><text x="44.088" y="1.67" class="f">version</text><text x="52.104" y="1.67" class="f">is</text><text x="55.11" y="1.67" class="f">v0.0.1-0ddd59dbadaad</text></symbol><symbol id="4"><text y="1.67" class="f">[NOTICE]</text><text x="11.022" y="1.67" class="f">(12981)</text><text x="19.038" y="1.67" class="f">:</text><text x="21.042" y="1.67" class="f">process</text><text x="29.058" y="1.67" class="f">12986</text><text x="35.07" y="1.67" class="f">started</text></symbol><symbol id="5"><text y="1.67" class="f">[NOTICE]</text><text x="11.022" y="1.67" class="f">(12981)</text><text x="19.038" y="1.67" class="f">:</text><text x="21.042" y="1.67" class="f">watch</text><text x="27.054" y="1.67" class="f">file</text><text x="32.064" y="1.67" class="f">:</text><text x="34.068" y="1.67" class="f">/usr/local/etc/haproxy/haproxy.cfg</text></symbol><symbol id="6"><text y="1.67" class="f">[NOTICE]</text><text x="11.022" y="1.67" class="f">(12981)</text><text x="19.038" y="1.67" class="f">:</text><text x="21.042" y="1.67" class="f">fs</text><text x="24.048" y="1.67" class="f">event</text><text x="30.06" y="1.67" class="f">for</text><text x="34.068" y="1.67" class="f">file</text><text x="39.078" y="1.67" class="f">/usr/local/etc/haproxy/haproxy.cfg</text><text x="74.148" y="1.67" class="f">:</text><text x="76.152" y="1.67" class="f">WRITE</text></symbol><symbol id="7"><text y="1.67" class="f">[NOTICE]</text><text x="11.022" y="1.67" class="f">(12981)</text><text x="19.038" y="1.67" class="f">:</text><text x="21.042" y="1.67" class="f">process</text><text x="29.058" y="1.67" class="f">13015</text><text x="35.07" y="1.67" class="f">started</text></symbol><symbol id="8"><text y="1.67" class="f">[WARNING]</text><text x="11.022" y="1.67" class="f">(12986)</text><text x="19.038" y="1.67" class="f">:</text><text x="21.042" y="1.67" class="f">Proxy</text><text x="27.054" y="1.67" class="f">http-proxy</text><text x="38.076" y="1.67" class="f">stopped</text><text x="46.092" y="1.67" class="f">(cumulated</text><text x="57.114" y="1.67" class="f">conns:</text><text x="64.128" y="1.67" class="f">FE:</text><text x="68.136" y="1.67" class="f">0,</text><text x="71.142" y="1.67" class="f">BE:</text><text x="75.15" y="1.67" class="f">0).</text></symbol><symbol id="9"><text y="1.67" class="f">[WARNING]</text><text x="11.022" y="1.67" class="f">(12986)</text><text x="19.038" y="1.67" class="f">:</text><text x="21.042" y="1.67" class="f">Proxy</text><text x="27.054" y="1.67" class="f">GLOBAL</text><text x="34.068" y="1.67" class="f">stopped</text><text x="42.084" y="1.67" class="f">(cumulated</text><text x="53.106" y="1.67" class="f">conns:</text><text x="60.12" y="1.67" class="f">FE:</text><text x="64.128" y="1.67" class="f">1,</text><text x="67.134" y="1.67" class="f">BE:</text><text x="71.142" y="1.67" class="f">1).</text></symbol><symbol id="10"><text y="1.67" class="f">[NOTICE]</text><text x="11.022" y="1.67" class="f">(12981)</text><text x="19.038" y="1.67" class="f">:</text><text x="21.042" y="1.67" class="f">process</text><text x="29.058" y="1.67" class="f">12986</text><text x="35.07" y="1.67" class="f">terminated</text><text x="46.092" y="1.67" class="f">:</text><text x="48.096" y="1.67" class="f">exit</text><text x="53.106" y="1.67" class="f">status</text><text x="60.12" y="1.67" class="f">0</text></symbol><symbol id="11"><text y="1.67" class="f">[NOTICE]</text><text x="11.022" y="1.67" class="f">(12981)</text><text x="19.038" y="1.67" class="f">:</text><text x="21.042" y="1.67" class="f">reload</text><text x="28.056" y="1.67" class="f">successful</text></symbol><symbol id="12"><text y="1.67" class="f">[NOTICE]</text><text x="11.022" y="1.67" class="f">(12981)</text><text x="19.038" y="1.67" class="f">:</text><text x="21.042" y="1.67" class="f">process</text><text x="29.058" y="1.67" class="f">13060</text><text x="35.07" y="1.67" class="f">started</text></symbol><symbol id="13"><text y="1.67" class="f">[NOTICE]</text><text x="11.022" y="1.67" class="f">(13060)</text><text x="19.038" y="1.67" class="f">:</text><text x="21.042" y="1.67" class="f">haproxy</text><text x="29.058" y="1.67" class="f">version</text><text x="37.074" y="1.67" class="f">is</text><text x="40.08" y="1.67" class="f">2.5.5-384c5c5</text></symbol><symbol id="14"><text y="1.67" class="f">[NOTICE]</text><text x="11.022" y="1.67" class="f">(13060)</text><text x="19.038" y="1.67" class="f">:</text><text x="21.042" y="1.67" class="f">path</text><text x="26.052" y="1.67" class="f">to</text><text x="29.058" y="1.67" class="f">executable</text><text x="40.08" y="1.67" class="f">is</text><text x="43.086" y="1.67" class="f">/usr/sbin/haproxy</text></symbol><symbol id="15"><text y="1.67" class="f">[ALERT]</text><text x="11.022" y="1.67" class="f">(13060)</text><text x="19.038" y="1.67" class="f">:</text><text x="21.042" y="1.67" class="f">parsing</text><text x="29.058" y="1.67" class="f">[/usr/local/etc/haproxy/haproxy.cfg:13]</text><text x="69.138" y="1.67" class="f">:</text><text x="71.142" y="1.67" class="f">unknown</text><text x="79.158" y="1.67" class="f">keyword</text><text x="87.174" y="1.67" class="f">&apos;listens&apos;</text><text x="97.194" y="1.67" class="f">in</text></symbol><symbol id="16"><text y="1.67" class="f">&apos;defaults&apos;</text><text x="11.022" y="1.67" class="f">section;</text><text x="20.04" y="1.67" class="f">did</text><text x="24.048" y="1.67" class="f">you</text><text x="28.056" y="1.67" class="f">mean</text><text x="33.066" y="1.67" class="f">&apos;listen&apos;</text><text x="42.084" y="1.67" class="f">maybe</text><text x="48.096" y="1.67" class="f">?</text></symbol><symbol id="17"><text y="1.67" class="f">[ALERT]</text><text x="11.022" y="1.67" class="f">(13060)</text><text x="19.038" y="1.67" class="f">:</text><text x="21.042" y="1.67" class="f">parsing</text><text x="29.058" y="1.67" class="f">[/usr/local/etc/haproxy/haproxy.cfg:14]</text><text x="69.138" y="1.67" class="f">:</text><text x="71.142" y="1.67" class="f">&apos;server&apos;</text><text x="80.16" y="1.67" class="f">not</text><text x="84.168" y="1.67" class="f">allowed</text><text x="92.184" y="1.67" class="f">in</text><text x="95.19" y="1.67" class="f">&apos;defa</text></symbol><symbol id="18"><text y="1.67" class="f">ults&apos;</text><text x="6.012" y="1.67" class="f">section.</text></symbol><symbol id="19"><text y="1.67" class="f">[ALERT]</text><text x="11.022" y="1.67" class="f">(13060)</text><text x="19.038" y="1.67" class="f">:</text><text x="21.042" y="1.67" class="f">Error(s)</text><text x="30.06" y="1.67" class="f">found</text><text x="36.072" y="1.67" class="f">in</text><text x="39.078" y="1.67" class="f">configuration</text><text x="53.106" y="1.67" class="f">file</text><text x="58.116" y="1.67" class="f">:</text><text x="60.12" y="1.67" class="f">/usr/local/etc/haproxy/haproxy.cfg</text></symbol><symbol id="20"><text y="1.67" class="f">[ALERT]</text><text x="11.022" y="1.67" class="f">(13060)</text><text x="19.038" y="1.67" class="f">:</text><text x="21.042" y="1.67" class="f">Fatal</text><text x="27.054" y="1.67" class="f">errors</text><text x="34.068" y="1.67" class="f">found</text><text x="40.08" y="1.67" class="f">in</text><text x="43.086" y="1.67" class="f">configuration.</text></symbol><symbol id="21"><text y="1.67" class="f">[WARNING]</text><text x="11.022" y="1.67" class="f">(12981)</text><text x="19.038" y="1.67" class="f">:</text><text x="21.042" y="1.67" class="f">process</text><text x="29.058" y="1.67" class="f">13060</text><text x="35.07" y="1.67" class="f">terminated</text><text x="46.092" y="1.67" class="f">unexpectedly</text><text x="59.118" y="1.67" class="f">:</text><text x="61.122" y="1.67" class="f">exit</text><text x="66.132" y="1.67" class="f">status</text><text x="73.146" y="1.67" class="f">1</text></symbol><symbol id="22"><text y="1.67" class="f">[WARNING]</text><text x="11.022" y="1.67" class="f">(12981)</text><text x="19.038" y="1.67" class="f">:</text><text x="21.042" y="1.67" class="f">reload</text><text x="28.056" y="1.67" class="f">failed</text></symbol><symbol id="23"><text y="1.67" class="f">[NOTICE]</text><text x="11.022" y="1.67" class="f">(12981)</text><text x="19.038" y="1.67" class="f">:</text><text x="21.042" y="1.67" class="f">received</text><text x="30.06" y="1.67" class="f">singal</text><text x="37.074" y="1.67" class="f">15</text></symbol><symbol id="24"><text y="1.67" class="f">[NOTICE]</text><text x="11.022" y="1.67" class="f">(12981)</text><text x="19.038" y="1.67" class="f">:</text><text x="21.042" y="1.67" class="f">process</text><text x="29.058" y="1.67" class="f">13015</text><text x="35.07" y="1.67" class="f">terminated</text><text x="46.092" y="1.67" class="f">:</text><text x="48.096" y="1.67" class="f">signal:</text><text x="56.112" y="1.67" class="f">terminated</text></symbol><symbol id="a"><path fill="transparent" d="M0 0h100v20H0z"/></symbol><symbol id="b"><path fill="#6f7683" d="M0 0h1.102v2.171H0z"/></symbol></defs><path class="a" d="M0 0h100v43.42H0z"/><g style="animation-duration:35s;animation-iteration-count:infinite;animation-name:i;animation-timing-function:steps(1,end)"><svg width="1800"><svg><use xlink:href="#a"/><use xlink:href="#b" x="-.004"/></svg><svg x="100"><use xlink:href="#a"/><use xlink:href="#b" x=".996"/><use xlink:href="#1"/></svg><svg x="200"><use xlink:href="#a"/><use xlink:href="#b" x="62.996"/><text y="1.67" class="f">$</text><path fill="#b9c0cb" d="M1.002 0h62v2.171h-62z"/><text x="1.002" y="1.67" style="white-space:pre" fill="#282d35">./haproxy-reload-wrapper -f /usr/local/etc/haproxy/haproxy.cfg</text></svg><svg x="300"><use xlink:href="#a"/><use xlink:href="#b" x="-.004" y="2.146"/><use xlink:href="#2"/></svg><svg x="400"><use xlink:href="#a"/><use xlink:href="#b" x="-.004" y="4.317"/><use xlink:href="#2"/><use xlink:href="#3" y="2.171"/></svg><svg x="500"><use xlink:href="#a"/><use xlink:href="#b" x="-.004" y="8.659"/><use xlink:href="#2"/><use xlink:href="#3" y="2.171"/><use xlink:href="#4" y="4.342"/><use xlink:href="#5" y="6.513"/></svg><svg x="600"><use xlink:href="#a"/><use xlink:href="#b" x="-.004" y="10.83"/><use xlink:href="#2"/><use xlink:href="#3" y="2.171"/><use xlink:href="#4" y="4.342"/><use xlink:href="#5" y="6.513"/><use xlink:href="#6" y="8.684"/></svg><svg x="700"><use xlink:href="#a"/><use xlink:href="#b" x="-.004" y="13.001"/><use xlink:href="#2"/><use xlink:href="#3" y="2.171"/><use xlink:href="#4" y="4.342"/><use xlink:href="#5" y="6.513"/><use xlink:href="#6" y="8.684"/><use xlink:href="#7" y="10.855"/></svg><svg x="800"><use xlink:href="#a"/><use xlink:href="#b" x="-.004" y="17.343"/><use xlink:href="#2"/><use xlink:href="#3" y="2.171"/><use xlink:href="#4" y="4.342"/><use xlink:href="#5" y="6.513"/><use xlink:href="#6" y="8.684"/><use xlink:href="#7" y="10.855"/><use xlink:href="#8" y="13.026"/><use xlink:href="#9" y="15.197"/></svg><svg x="900"><use xlink:href="#a"/><use xlink:href="#b" x="-.004" y="21.685"/><use xlink:href="#2"/><use xlink:href="#3" y="2.171"/><use xlink:href="#4" y="4.342"/><use xlink:href="#5" y="6.513"/><use xlink:href="#6" y="8.684"/><use xlink:href="#7" y="10.855"/><use xlink:href="#8" y="13.026"/><use xlink:href="#9" y="15.197"/><use xlink:href="#10" y="17.368"/><use xlink:href="#11" y="19.539"/></svg><svg x="1000"><use xlink:href="#a"/><use xlink:href="#b" x="-.004" y="23.856"/><use xlink:href="#2"/><use xlink:href="#3" y="2.171"/><use xlink:href="#4" y="4.342"/><use xlink:href="#5" y="6.513"/><use xlink:href="#6" y="8.684"/><use xlink:href="#7" y="10.855"/><use xlink:href="#8" y="13.026"/><use xlink:href="#9" y="15.197"/><use xlink:href="#10" y="17.368"/><use xlink:href="#11" y="19.539"/><use xlink:href="#6" y="21.71"/></svg><svg x="1100"><use xlink:href="#a"/><use xlink:href="#b" x="-.004" y="26.027"/><use xlink:href="#2"/><use xlink:href="#3" y="2.171"/><use xlink:href="#4" y="4.342"/><use xlink:href="#5" y="6.513"/><use xlink:href="#6" y="8.684"/><use xlink:href="#7" y="10.855"/><use xlink:href="#8" y="13.026"/><use xlink:href="#9" y="15.197"/><use xlink:href="#10" y="17.368"/><use xlink:href="#11" y="19.539"/><use xlink:href="#6" y="21.71"/><use xlink:href="#12" y="23.881"/></svg><svg x="1200"><use xlink:href="#a"/><use xlink:href="#b" x="-.004" y="41.224"/><use xlink:href="#3"/><use xlink:href="#4" y="2.171"/><use xlink:href="#5" y="4.342"/><use xlink:href="#6" y="6.513"/><use xlink:href="#7" y="8.684"/><use xlink:href="#8" y="10.855"/><use xlink:href="#9" y="13.026"/><use xlink:href="#10" y="15.197"/><use xlink:href="#11" y="17.368"/><use xlink:href="#6" y="19.539"/><use xlink:href="#12" y="21.71"/><use xlink:href="#13" y="23.881"/><use xlink:href="#14" y="26.052"/><use xlink:href="#15" y="28.223"/><use xlink:href="#16" y="30.394"/><use xlink:href="#17" y="32.565"/><use xlink:href="#18" y="34.736"/><use xlink:href="#19" y="36.907"/><use xlink:href="#20" y="39.078"/></svg><svg x="1300"><use xlink:href="#a"/><use xlink:href="#b" x="-.004" y="41.224"/><use xlink:href="#5"/><use xlink:href="#6" y="2.171"/><use xlink:href="#7" y="4.342"/><use xlink:href="#8" y="6.513"/><use xlink:href="#9" y="8.684"/><use xlink:href="#10" y="10.855"/><use xlink:href="#11" y="13.026"/><use xlink:href="#6" y="15.197"/><use xlink:href="#12" y="17.368"/><use xlink:href="#13" y="19.539"/><use xlink:href="#14" y="21.71"/><use xlink:href="#15" y="23.881"/><use xlink:href="#16" y="26.052"/><use xlink:href="#17" y="28.223"/><use xlink:href="#18" y="30.394"/><use xlink:href="#19" y="32.565"/><use xlink:href="#20" y="34.736"/><use xlink:href="#21" y="36.907"/><use xlink:href="#22" y="39.078"/></svg><svg x="1400"><use xlink:href="#a"/><use xlink:href="#b" x="-.004" y="41.224"/><use xlink:href="#6"/><use xlink:href="#7" y="2.171"/><use xlink:href="#8" y="4.342"/><use xlink:href="#9" y="6.513"/><use xlink:href="#10" y="8.684"/><use xlink:href="#11" y="10.855"/><use xlink:href="#6" y="13.026"/><use xlink:href="#12" y="15.197"/><use xlink:href="#13" y="17.368"/><use xlink:href="#14" y="19.539"/><use xlink:href="#15" y="21.71"/><use xlink:href="#16" y="23.881"/><use xlink:href="#17" y="26.052"/><use xlink:href="#18" y="28.223"/><use xlink:href="#19" y="30.394"/><use xlink:href="#20" y="32.565"/><use xlink:href="#21" y="34.736"/><use xlink:href="#22" y="36.907"/><use xlink:href="#23" y="39.078"/></svg><svg x="1500"><use xlink:href="#a"/><use xlink:href="#b" x="-.004" y="41.224"/><use xlink:href="#7"/><use xlink:href="#8" y="2.171"/><use xlink:href="#9" y="4.342"/><use xlink:href="#10" y="6.513"/><use xlink:href="#11" y="8.684"/><use xlink:href="#6" y="10.855"/><use xlink:href="#12" y="13.026"/><use xlink:href="#13" y="15.197"/><use xlink:href="#14" y="17.368"/><use xlink:href="#15" y="19.539"/><use xlink:href="#16" y="21.71"/><use xlink:href="#17" y="23.881"/><use xlink:href="#18" y="26.052"/><use xlink:href="#19" y="28.223"/><use xlink:href="#20" y="30.394"/><use xlink:href="#21" y="32.565"/><use xlink:href="#22" y="34.736"/><use xlink:href="#23" y="36.907"/><use xlink:href="#24" y="39.078"/></svg><svg x="1600"><use xlink:href="#a"/><use xlink:href="#b" x=".996" y="41.224"/><use xlink:href="#7"/><use xlink:href="#8" y="2.171"/><use xlink:href="#9" y="4.342"/><use xlink:href="#10" y="6.513"/><use xlink:href="#11" y="8.684"/><use xlink:href="#6" y="10.855"/><use xlink:href="#12" y="13.026"/><use xlink:href="#13" y="15.197"/><use xlink:href="#14" y="17.368"/><use xlink:href="#15" y="19.539"/><use xlink:href="#16" y="21.71"/><use xlink:href="#17" y="23.881"/><use xlink:href="#18" y="26.052"/><use xlink:href="#19" y="28.223"/><use xlink:href="#20" y="30.394"/><use xlink:href="#21" y="32.565"/><use xlink:href="#22" y="34.736"/><use xlink:href="#23" y="36.907"/><use xlink:href="#24" y="39.078"/><use xlink:href="#1" y="41.249"/></svg><svg x="1700"><use xlink:href="#a"/><use xlink:href="#b" x=".996" y="41.224"/><use xlink:href="#7"/><use xlink:href="#8" y="2.171"/><use xlink:href="#9" y="4.342"/><use xlink:href="#10" y="6.513"/><use xlink:href="#11" y="8.684"/><use xlink:href="#6" y="10.855"/><use xlink:href="#12" y="13.026"/><use xlink:href="#13" y="15.197"/><use xlink:href="#14" y="17.368"/><use xlink:href="#15" y="19.539"/><use xlink:href="#16" y="21.71"/><use xlink:href="#17" y="23.881"/><use xlink:href="#18" y="26.052"/><use xlink:href="#19" y="28.223"/><use xlink:href="#20" y="30.394"/><use xlink:href="#21" y="32.565"/><use xlink:href="#22" y="34.736"/><use xlink:href="#23" y="36.907"/><use xlink:href="#24" y="39.078"/><use xlink:href="#1" y="41.249"/></svg></svg></g></g></svg></svg>